<?xml version="1.0" encoding="utf-8"?>
<!-- Generator: Adobe Illustrator 22.0.1, SVG Export Plug-In . SVG Version: 6.00 Build 0)  -->
<svg version="1.1" xmlns="http://www.w3.org/2000/svg" xmlns:xlink="http://www.w3.org/1999/xlink" x="0px" y="0px"
	 viewBox="0 0 435 455.5" style="enable-background:new 0 0 435 455.5;" xml:space="preserve">
<style type="text/css">
	.st0{fill:#EF5733;}
	.st1{fill:#F1A820;}
	.st2{fill:#D88F1A;}
	.st3{opacity:0.1;fill:#FFFFFF;}
	.st4{fill:#C1811B;}
	.st5{fill:#FFC36C;}
	.st6{fill:#D8911E;}
	.st7{fill:#FFB845;}
	.st8{opacity:0.2;fill:#1D1D1B;}
	.st9{opacity:0.2;fill:#FFFFFF;}
	.st10{opacity:0.3;fill:#FFFFFF;}
	.st11{fill:#F4B158;}
	.st12{fill:#D88D16;}
</style>
<g id="Layer_1">
	<g>
		<g>
			<path class="st0" d="M329.9,324c11.3,0.6,20.9-5.6,22.6-15.6c0.2-1.3-1.4-2.8-1.7-1.6c-2.7,10.2-20.5,15.6-31.1,10.4
				c-0.7,7.1,0.7,13.8,0,20.9c3.2,1.6,7.2-0.6,8.9-3.7C330.2,331.3,330,327.6,329.9,324z"/>
			<path class="st1" d="M234,35.5c-1.4-3.5-2.8-7.8-2.1-11.9c0.5-2.9,2-4.8,3.5-5.4c1.5-0.7,3.1-0.3,4.6,0.1
				c-0.1,10.5-0.3,21-0.4,31.5C237.7,45,235.9,40.2,234,35.5z"/>
			<rect x="248.3" y="1.4" class="st1" width="23.1" height="243.3"/>
			<rect x="269.8" y="6.3" class="st1" width="16.7" height="238.4"/>
			<rect x="259.6" y="1.4" class="st2" width="11.8" height="243.3"/>
			<rect x="250.2" y="1.4" class="st3" width="5.7" height="243.3"/>
			<rect x="278.2" y="6.3" class="st4" width="8.3" height="238.4"/>
			<rect x="250.2" y="1.4" class="st5" width="2.9" height="243.3"/>
			<rect x="271.2" y="6.3" class="st3" width="2.4" height="238.4"/>
			<rect x="265.5" y="1.4" class="st4" width="5.9" height="243.3"/>
			<polygon class="st0" points="243.7,316.6 243.7,346.5 234.2,346.5 234.2,327.1 			"/>
			<path class="st0" d="M290,384.6l-5.2,2.4l-5.6-4.5c-5.8-4.7-14.2-5.4-20.4-1c-8.8,6.3-13.7,19.3-14.7,27.6l-2.4-1.3
				c-1.1-12.7,2.6-22.2,9.1-32.3c2.3-3.6,4.1-7.4,3-11.5l-6.6-13.8l34.1,9.8L290,384.6z"/>
			<path class="st1" d="M237.5,356.3l11.9,1.7c18.6,2.7,34.1,15.6,40.1,33.4l4.5,13.3l31-39.8v-12.6c6.5,1.1,21.2,2.2,29.9-8.8
				c4.8-6.1,7.9-13.7,7.9-23.7c0-1.5-0.1-3-0.2-4.5c-0.8-10.4-4.5-17.7-11-21.9c-6.1-4-13.6-5.2-19.5-5.5c-4-0.2-7.2-3.4-7.2-7.4
				v-17.7c0-6.8-4.4-12.8-10.9-14.8l-16.7-5.2h-59.9V356.3z M349.5,296.7c5.4,3.5,8.5,9.9,9.2,18.9c0.8,11-2,19-6.7,25.2
				c-3.4,4.6-8.2,6.8-12.9,7.8c-7.3,1.5-14.1-4.2-14.1-11.7v-37.6c0-4.3,3.7-7.8,8-7.4C338.2,292.2,344.5,293.4,349.5,296.7z"/>
			<rect x="246.9" y="263.4" class="st6" width="59.2" height="68.6"/>
			<rect x="249.8" y="266.3" class="st7" width="53.4" height="62.9"/>
			<path class="st1" d="M260.2,266.3h11.9v33.2c0,3.3-2.7,6-5.9,6c-1.6,0-3.1-0.7-4.2-1.7c-1.1-1.1-1.7-2.6-1.7-4.2V266.3z"/>
			<path class="st1" d="M293.6,266.3h7.7v33.2c0,3.3-1.7,6-3.9,6c-1.1,0-2-0.7-2.7-1.7c-0.7-1.1-1.1-2.6-1.1-4.2V266.3z"/>
			<path class="st8" d="M260.2,266.3v33.2c0,1.7,0.7,3.1,1.7,4.2c0.9,0.9,2.1,1.5,3.5,1.7v-39H260.2z"/>
			<path class="st8" d="M293.6,266.3v33.2c0,1.7,0.4,3.1,1.1,4.2c0.7,1.1,1.7,1.7,2.7,1.7v-39.1H293.6z"/>
			<rect x="269.5" y="266.3" class="st9" width="11.7" height="62.9"/>
			<rect x="252" y="266.3" class="st10" width="4.3" height="62.9"/>
			<path class="st1" d="M248.4,332c4.6,10.4,15,17.6,27,17.6c12.1,0,22.5-7.3,27-17.6H248.4z"/>
			<path class="st8" d="M276.6,349.6c11.6-0.5,21.4-7.6,25.9-17.6h-11.2C288.7,339.4,283.7,346,276.6,349.6z"/>
			<path class="st5" d="M269.9,349.1c0.7,0.1,1.5,0.3,2.3,0.3c-6.7-4.7-12.6-10.6-16.2-17.4h-4.8
				C255.1,339.5,261.1,345.7,269.9,349.1z"/>
			<path class="st11" d="M272.9,349.5c0.8,0.1,1.6,0.1,2.5,0.1c0,0,0,0,0,0c3.8-5.2,5.6-11.7,5.8-17.6h-11.7
				C269.8,340.5,271.5,344.1,272.9,349.5z"/>
			<path class="st1" d="M427.9,372.8c7.1,23.4,7.9,50.4,1,76.2c-0.8,3-3.5,5.1-6.6,5.1c-85.7,1.1-80.6-33.4-128.3-49.4
				c-11.1-30.8,15.8-66,43.7-51.9c4.2,28.3,50.5,26.9,81.2,15.5C422.7,366.9,426.8,369,427.9,372.8z"/>
			<path class="st0" d="M425.9,412.4c0,9.5-1,19-3,28.2c-0.7,3.3-3.7,5.7-7.1,5.7c-47.1-0.4-62.8-12.8-79.3-25.8
				c-9.1-7.2-18.5-14.6-32.6-20.4c-2.3-0.9-4-3-4.3-5.5c-0.2-1.5-0.3-3.1-0.3-4.6c0-12,6.1-23.8,15.1-29.4c2.9-1.8,6.9-3.4,11.7-3.1
				c2.8,0.2,5.1,1.9,6.2,4.5c2.6,6,7.1,10.9,13.2,14.5c17.5,10.3,46,8.3,68.3,1.8c3.9-1.2,8,1.2,8.9,5.2
				C424.8,392.8,425.9,402.5,425.9,412.4z"/>
			<path class="st12" d="M251.7,338.5v22.9H247c-8.7,0-15.7-7-15.7-15.7v-7.2H251.7z"/>
			<path class="st7" d="M248.7,358.4H247c-7,0-12.7-5.7-12.7-12.7v-4.2h14.4V358.4z"/>
			<circle class="st7" cx="398.1" cy="413.9" r="6.5"/>
			<path class="st7" d="M289.1,357.6c2.1,0,3.9,1.7,3.9,3.9c0,2.1-1.7,3.9-3.9,3.9c-2.1,0-3.9-1.7-3.9-3.9
				C285.2,359.3,286.9,357.6,289.1,357.6z"/>
			<path class="st7" d="M315.5,285.8c2.1,0,3.9,1.7,3.9,3.9c0,2.1-1.7,3.9-3.9,3.9c-2.1,0-3.9-1.7-3.9-3.9
				C311.6,287.5,313.4,285.8,315.5,285.8z"/>
			<path class="st8" d="M333.1,376.5c33.3,30.9,89.2-8.5,99,56.9c3.1-20.8,1.5-41.8-4.2-60.6c-1.2-3.8-5.3-5.9-9-4.5
				c-30.7,11.4-77,12.8-81.2-15.5c-0.1-0.1-0.2-0.1-0.3-0.1c6.1-0.7,12.7-3.1,17.5-9.2c4.8-6.1,7.9-13.7,7.9-23.7
				c0-1.5-0.1-3-0.2-4.5c-0.8-10.4-4.5-17.7-11-21.9c-6.1-4-13.6-5.2-19.5-5.5c-4-0.2-7.2-3.4-7.2-7.4v-17.7
				c0-6.8-4.4-12.8-10.9-14.8l-4.1-1.3C309.9,297.7,302.6,348.1,333.1,376.5z M349.5,296.7c5.4,3.5,8.5,9.9,9.2,18.9
				c0.8,11-2,19-6.7,25.2c-3.4,4.6-8.2,6.8-12.9,7.8c-7.3,1.5-14.1-4.2-14.1-11.7v-37.7c0-4.3,3.7-7.8,8-7.4
				C338.2,292.2,344.5,293.4,349.5,296.7z"/>
			<rect x="246.9" y="242.7" class="st1" width="28.9" height="20.7"/>
			<rect x="275.8" y="242.7" class="st1" width="19.9" height="20.7"/>
			<rect x="262.8" y="242.7" class="st8" width="12.9" height="20.7"/>
			<rect x="284.9" y="242.7" class="st8" width="10.6" height="20.7"/>
			<rect x="249.8" y="242.7" class="st5" width="6.5" height="20.7"/>
			<path class="st1" d="M239,5.8V245h10.2V1.4h-5.8C240.9,1.4,239,3.3,239,5.8z M245.7,205.3V234c0,1-0.8,1.8-1.8,1.8
				c-1,0-1.8-0.8-1.8-1.8v-28.7c0-1,0.8-1.8,1.8-1.8C244.9,203.5,245.7,204.3,245.7,205.3z M245.7,151.2v28.7c0,1-0.8,1.8-1.8,1.8
				c-1,0-1.8-0.8-1.8-1.8v-28.7c0-1,0.8-1.8,1.8-1.8C244.9,149.4,245.7,150.2,245.7,151.2z M245.7,97.1v28.7c0,1-0.8,1.8-1.8,1.8
				c-1,0-1.8-0.8-1.8-1.8V97.1c0-1,0.8-1.8,1.8-1.8C244.9,95.3,245.7,96.1,245.7,97.1z M245.7,13v58.7c0,1-0.8,1.8-1.8,1.8
				c-1,0-1.8-0.8-1.8-1.8V13c0-1,0.8-1.8,1.8-1.8C244.9,11.2,245.7,12,245.7,13z"/>
			<rect x="284.9" y="266.3" class="st8" width="18.3" height="62.9"/>
		</g>
		<g>
			<path class="st0" d="M105.1,324c-11.3,0.6-20.9-5.6-22.6-15.6c-0.2-1.3,1.4-2.8,1.7-1.6c2.7,10.2,20.5,15.6,31.1,10.4
				c0.7,7.1-0.7,13.8,0,20.9c-3.2,1.6-7.2-0.6-8.9-3.7C104.8,331.3,105,327.6,105.1,324z"/>
			<path class="st1" d="M201,35.5c1.4-3.5,2.8-7.8,2.1-11.9c-0.5-2.9-2-4.8-3.5-5.4c-1.5-0.7-3.1-0.3-4.6,0.1
				c0.1,10.5,0.3,21,0.4,31.5C197.3,45,199.1,40.2,201,35.5z"/>
			<rect x="163.6" y="1.4" class="st1" width="23.1" height="243.3"/>
			<rect x="148.5" y="6.3" class="st1" width="16.7" height="238.4"/>
			<rect x="163.6" y="1.4" class="st2" width="11.8" height="243.3"/>
			<rect x="179.1" y="1.4" class="st3" width="5.7" height="243.3"/>
			<rect x="148.5" y="6.3" class="st4" width="8.3" height="238.4"/>
			<rect x="182" y="1.4" class="st5" width="2.9" height="243.3"/>
			<rect x="161.3" y="6.3" class="st3" width="2.4" height="238.4"/>
			<rect x="163.6" y="1.4" class="st4" width="5.9" height="243.3"/>
			<polygon class="st0" points="191.3,316.6 191.3,346.5 200.8,346.5 200.8,327.1 			"/>
			<path class="st0" d="M145,384.6l5.2,2.4l5.6-4.5c5.8-4.7,14.2-5.4,20.4-1c8.8,6.3,13.7,19.3,14.7,27.6l2.4-1.3
				c1.1-12.7-2.6-22.2-9.1-32.3c-2.3-3.6-4.1-7.4-3-11.5l6.6-13.8l-34.1,9.8L145,384.6z"/>
			<path class="st1" d="M197.5,242.7h-59.9l-16.7,5.2c-6.5,2-10.9,8-10.9,14.8v17.7c0,4-3.2,7.3-7.2,7.4c-5.9,0.3-13.4,1.6-19.5,5.5
				c-6.5,4.2-10.2,11.6-11,21.9c-0.1,1.5-0.2,3-0.2,4.5c0,10,3.1,17.6,7.9,23.7c8.6,11,23.4,9.9,29.9,8.8v12.6l31,39.8l4.5-13.3
				c6-17.8,21.5-30.7,40.1-33.4l11.9-1.7V242.7z M102.1,291.8c4.3-0.3,8,3.1,8,7.4v37.6c0,7.5-6.8,13.2-14.1,11.7
				c-4.7-1-9.5-3.2-12.9-7.8c-4.7-6.2-7.5-14.3-6.7-25.2c0.7-9.1,3.8-15.4,9.2-18.9C90.5,293.4,96.8,292.2,102.1,291.8z"/>
			<rect x="128.9" y="263.4" class="st6" width="59.2" height="68.6"/>
			<rect x="131.8" y="266.3" class="st7" width="53.4" height="62.9"/>
			<path class="st1" d="M174.8,266.3h-11.9v33.2c0,3.3,2.7,6,5.9,6c1.6,0,3.1-0.7,4.2-1.7c1.1-1.1,1.7-2.6,1.7-4.2V266.3z"/>
			<path class="st1" d="M141.4,266.3h-7.7v33.2c0,3.3,1.7,6,3.9,6c1.1,0,2-0.7,2.7-1.7c0.7-1.1,1.1-2.6,1.1-4.2V266.3z"/>
			<path class="st8" d="M174.8,266.3v33.2c0,1.7-0.7,3.1-1.7,4.2c-0.9,0.9-2.1,1.5-3.5,1.7v-39H174.8z"/>
			<path class="st8" d="M141.4,266.3v33.2c0,1.7-0.4,3.1-1.1,4.2c-0.7,1.1-1.7,1.7-2.7,1.7v-39.1H141.4z"/>
			<rect x="153.7" y="266.3" class="st9" width="11.7" height="62.9"/>
			<rect x="178.7" y="266.3" class="st10" width="4.3" height="62.9"/>
			<path class="st1" d="M186.6,332c-4.6,10.4-15,17.6-27,17.6s-22.5-7.3-27-17.6H186.6z"/>
			<path class="st8" d="M158.4,349.6c-11.6-0.5-21.4-7.6-25.9-17.6h11.2C146.3,339.4,151.3,346,158.4,349.6z"/>
			<path class="st5" d="M165.1,349.1c-0.7,0.1-1.5,0.3-2.3,0.3c6.7-4.7,12.6-10.6,16.2-17.4h4.8
				C179.9,339.5,173.9,345.7,165.1,349.1z"/>
			<path class="st11" d="M162.1,349.5c-0.8,0.1-1.6,0.1-2.5,0.1c0,0,0,0,0,0c-3.8-5.2-5.6-11.7-5.8-17.6h11.7
				C165.2,340.5,163.5,344.1,162.1,349.5z"/>
			<path class="st1" d="M7.1,372.8c-7.1,23.4-7.9,50.4-1,76.2c0.8,3,3.5,5.1,6.6,5.1c85.7,1.1,80.6-33.4,128.3-49.4
				c11.1-30.8-15.8-66-43.7-51.9c-4.2,28.3-50.5,26.9-81.2,15.5C12.3,366.9,8.2,369,7.1,372.8z"/>
			<path class="st0" d="M9.1,412.4c0,9.5,1,19,3,28.2c0.7,3.3,3.7,5.7,7.1,5.7c47.1-0.4,62.8-12.8,79.3-25.8
				c9.1-7.2,18.5-14.6,32.6-20.4c2.3-0.9,4-3,4.3-5.5c0.2-1.5,0.3-3.1,0.3-4.6c0-12-6.1-23.8-15.1-29.4c-2.9-1.8-6.9-3.4-11.7-3.1
				c-2.8,0.2-5.1,1.9-6.2,4.5c-2.6,6-7.1,10.9-13.2,14.5c-17.5,10.3-46,8.3-68.3,1.8c-3.9-1.2-8,1.2-8.9,5.2
				C10.2,392.8,9.1,402.5,9.1,412.4z"/>
			<path class="st12" d="M183.3,338.5v22.9h4.7c8.7,0,15.7-7,15.7-15.7v-7.2H183.3z"/>
			<path class="st7" d="M186.3,358.4h1.7c7,0,12.7-5.7,12.7-12.7v-4.2h-14.4V358.4z"/>
			<circle class="st7" cx="36.9" cy="413.9" r="6.5"/>
			<path class="st7" d="M145.9,357.6c-2.1,0-3.9,1.7-3.9,3.9c0,2.1,1.7,3.9,3.9,3.9c2.1,0,3.9-1.7,3.9-3.9
				C149.8,359.3,148.1,357.6,145.9,357.6z"/>
			<path class="st7" d="M119.5,285.8c-2.1,0-3.9,1.7-3.9,3.9c0,2.1,1.7,3.9,3.9,3.9c2.1,0,3.9-1.7,3.9-3.9
				C123.4,287.5,121.6,285.8,119.5,285.8z"/>
			<path class="st8" d="M125.1,246.6l-4.1,1.3c-6.5,2-10.9,8-10.9,14.8v17.7c0,4-3.2,7.3-7.2,7.4c-5.9,0.3-13.4,1.6-19.5,5.5
				c-6.5,4.2-10.2,11.6-11,21.9c-0.1,1.5-0.2,3-0.2,4.5c0,10,3.1,17.6,7.9,23.7c4.8,6.1,11.4,8.4,17.5,9.2c-0.1,0.1-0.2,0.1-0.3,0.1
				c-4.2,28.3-50.5,26.9-81.2,15.5c-3.8-1.4-7.9,0.7-9,4.5c-5.7,18.7-7.3,39.7-4.2,60.6c9.8-65.4,65.7-26,99-56.9
				C132.4,348.1,125.1,297.7,125.1,246.6z M102.1,291.8c4.3-0.3,8,3.1,8,7.4v37.7c0,7.5-6.8,13.2-14.1,11.7c-4.7-1-9.5-3.2-12.9-7.8
				c-4.7-6.2-7.5-14.3-6.7-25.2c0.7-9.1,3.8-15.4,9.2-18.9C90.5,293.4,96.8,292.2,102.1,291.8z"/>
			<rect x="159.2" y="242.7" class="st1" width="28.9" height="20.7"/>
			<rect x="139.4" y="242.7" class="st1" width="19.9" height="20.7"/>
			<rect x="159.2" y="242.7" class="st8" width="12.9" height="20.7"/>
			<rect x="139.5" y="242.7" class="st8" width="10.6" height="20.7"/>
			<rect x="178.7" y="242.7" class="st5" width="6.5" height="20.7"/>
			<path class="st1" d="M191.6,1.4h-5.8V245H196V5.8C196,3.3,194.1,1.4,191.6,1.4z M191.1,203.5c1,0,1.8,0.8,1.8,1.8V234
				c0,1-0.8,1.8-1.8,1.8c-1,0-1.8-0.8-1.8-1.8v-28.7C189.3,204.3,190.1,203.5,191.1,203.5z M191.1,149.4c1,0,1.8,0.8,1.8,1.8v28.7
				c0,1-0.8,1.8-1.8,1.8c-1,0-1.8-0.8-1.8-1.8v-28.7C189.3,150.2,190.1,149.4,191.1,149.4z M191.1,95.3c1,0,1.8,0.8,1.8,1.8v28.7
				c0,1-0.8,1.8-1.8,1.8c-1,0-1.8-0.8-1.8-1.8V97.1C189.3,96.1,190.1,95.3,191.1,95.3z M191.1,11.2c1,0,1.8,0.8,1.8,1.8v58.7
				c0,1-0.8,1.8-1.8,1.8c-1,0-1.8-0.8-1.8-1.8V13C189.3,12,190.1,11.2,191.1,11.2z"/>
			<rect x="131.8" y="266.3" class="st8" width="18.3" height="62.9"/>
		</g>
	</g>
</g>
<g id="card-back">
</g>
</svg>
