<?xml version="1.0" encoding="utf-8"?>
<!-- Generator: Adobe Illustrator 22.0.1, SVG Export Plug-In . SVG Version: 6.00 Build 0)  -->
<svg version="1.1" id="Layer_1" xmlns="http://www.w3.org/2000/svg" xmlns:xlink="http://www.w3.org/1999/xlink" x="0px" y="0px"
	 viewBox="0 0 1224.5 1181.5" style="enable-background:new 0 0 1224.5 1181.5;" xml:space="preserve">
<style type="text/css">
	.st0{fill:#40263E;}
	.st1{fill:#1BA479;}
	.st2{fill:#515151;}
	.st3{fill:#FFFFFF;}
	.st4{font-family:'MyriadPro-Regular';}
	.st5{font-size:49.983px;}
	.st6{fill:#DDA800;}
	.st7{fill-rule:evenodd;clip-rule:evenodd;fill:#CC0000;}
	.st8{fill:#C49100;}
	.st9{fill-rule:evenodd;clip-rule:evenodd;fill:#FFFFFF;}
	.st10{fill-rule:evenodd;clip-rule:evenodd;fill:#F1A820;}
	.st11{fill:#BB262F;}
	.st12{fill:#F1A820;}
	.st13{fill:#EF5733;}
	.st14{fill:#D88D16;}
	.st15{fill:#FFB845;}
	.st16{fill:#D88F1A;}
	.st17{opacity:0.1;fill:#FFFFFF;}
	.st18{fill:#C1811B;}
	.st19{fill:#FFC36C;}
	.st20{fill:#D8911E;}
	.st21{opacity:0.2;fill:#1D1D1B;}
	.st22{opacity:0.2;fill:#FFFFFF;}
	.st23{opacity:0.3;fill:#FFFFFF;}
	.st24{fill:#F4B158;}
</style>
<rect x="82.6" y="147.1" class="st0" width="976" height="942"/>
<g>
	<rect x="113.6" y="169.1" class="st1" width="98" height="98"/>
	<rect x="230.6" y="169.1" class="st1" width="98" height="98"/>
	<rect x="347.6" y="169.1" class="st1" width="98" height="98"/>
	<rect x="464.6" y="169.1" class="st1" width="98" height="98"/>
	<rect x="581.6" y="169.1" class="st1" width="98" height="98"/>
	<rect x="698.6" y="169.1" class="st1" width="98" height="98"/>
	<rect x="815.6" y="169.1" class="st1" width="98" height="98"/>
	<rect x="932.6" y="169.1" class="st1" width="98" height="98"/>
	<rect x="113.6" y="281.1" class="st1" width="98" height="98"/>
	<rect x="230.6" y="281.1" class="st1" width="98" height="98"/>
	<rect x="347.6" y="281.1" class="st1" width="98" height="98"/>
	<rect x="464.6" y="281.1" class="st1" width="98" height="98"/>
	<rect x="581.6" y="281.1" class="st1" width="98" height="98"/>
	<rect x="698.6" y="281.1" class="st1" width="98" height="98"/>
	<rect x="815.6" y="281.1" class="st1" width="98" height="98"/>
	<rect x="932.6" y="281.1" class="st1" width="98" height="98"/>
	<rect x="113.6" y="393.1" class="st1" width="98" height="98"/>
	<rect x="230.6" y="393.1" class="st1" width="98" height="98"/>
	<rect x="347.6" y="393.1" class="st1" width="98" height="98"/>
	<rect x="464.6" y="393.1" class="st1" width="98" height="98"/>
	<rect x="581.6" y="393.1" class="st1" width="98" height="98"/>
	<rect x="698.6" y="393.1" class="st1" width="98" height="98"/>
	<rect x="815.6" y="393.1" class="st1" width="98" height="98"/>
	<rect x="932.6" y="393.1" class="st1" width="98" height="98"/>
	<rect x="113.6" y="505.1" class="st1" width="98" height="98"/>
	<rect x="230.6" y="505.1" class="st1" width="98" height="98"/>
	<rect x="347.6" y="505.1" class="st1" width="98" height="98"/>
	<rect x="464.6" y="505.1" class="st1" width="98" height="98"/>
	<rect x="581.6" y="505.1" class="st1" width="98" height="98"/>
	<rect x="698.6" y="505.1" class="st1" width="98" height="98"/>
	<rect x="815.6" y="505.1" class="st1" width="98" height="98"/>
	<rect x="932.6" y="505.1" class="st1" width="98" height="98"/>
	<rect x="113.6" y="617.1" class="st1" width="98" height="98"/>
	<rect x="230.6" y="617.1" class="st1" width="98" height="98"/>
	<rect x="347.6" y="617.1" class="st1" width="98" height="98"/>
	<rect x="464.6" y="617.1" class="st1" width="98" height="98"/>
	<rect x="581.6" y="617.1" class="st1" width="98" height="98"/>
	<rect x="698.6" y="617.1" class="st1" width="98" height="98"/>
	<rect x="815.6" y="617.1" class="st1" width="98" height="98"/>
	<rect x="932.6" y="617.1" class="st1" width="98" height="98"/>
	<rect x="113.6" y="729.1" class="st1" width="98" height="98"/>
	<rect x="230.6" y="729.1" class="st1" width="98" height="98"/>
	<rect x="347.6" y="729.1" class="st1" width="98" height="98"/>
	<rect x="464.6" y="729.1" class="st1" width="98" height="98"/>
	<rect x="581.6" y="729.1" class="st1" width="98" height="98"/>
	<rect x="698.6" y="729.1" class="st1" width="98" height="98"/>
	<rect x="815.6" y="729.1" class="st1" width="98" height="98"/>
	<rect x="932.6" y="729.1" class="st1" width="98" height="98"/>
	<rect x="113.6" y="841.1" class="st1" width="98" height="98"/>
	<rect x="230.6" y="841.1" class="st1" width="98" height="98"/>
	<rect x="347.6" y="841.1" class="st1" width="98" height="98"/>
	<rect x="464.6" y="841.1" class="st1" width="98" height="98"/>
	<rect x="581.6" y="841.1" class="st1" width="98" height="98"/>
	<rect x="698.6" y="841.1" class="st1" width="98" height="98"/>
	<rect x="815.6" y="841.1" class="st1" width="98" height="98"/>
	<rect x="932.6" y="841.1" class="st1" width="98" height="98"/>
	<rect x="113.6" y="953.1" class="st1" width="98" height="98"/>
	<rect x="230.6" y="953.1" class="st1" width="98" height="98"/>
	<rect x="347.6" y="953.1" class="st1" width="98" height="98"/>
	<rect x="464.6" y="953.1" class="st1" width="98" height="98"/>
	<rect x="581.6" y="953.1" class="st1" width="98" height="98"/>
	<rect x="698.6" y="953.1" class="st1" width="98" height="98"/>
	<rect x="815.6" y="953.1" class="st1" width="98" height="98"/>
	<rect x="932.6" y="953.1" class="st1" width="98" height="98"/>
</g>
<rect x="602.6" y="23.1" class="st2" width="2" height="117"/>
<text transform="matrix(1 0 0 1 668.5441 96.3494)" class="st2 st4 st5">Player Two</text>
<g>
	<g>
		<rect x="1036.6" y="72.2" class="st2" width="14.1" height="33"/>
		<rect x="1036.6" y="105.2" class="st6" width="14.1" height="3"/>
		<path class="st6" d="M1050.7,72.2h-14.1v-10c0-3.9,3.2-7,7-7l0,0c3.9,0,7,3.2,7,7V72.2z"/>
	</g>
	<g>
		<rect x="1061.6" y="72.2" class="st2" width="14.1" height="33"/>
		<rect x="1061.6" y="105.2" class="st6" width="14.1" height="3"/>
		<path class="st6" d="M1075.7,72.2h-14.1v-10c0-3.9,3.2-7,7-7l0,0c3.9,0,7,3.2,7,7V72.2z"/>
	</g>
	<g>
		<rect x="1086.6" y="72.2" class="st2" width="14.1" height="33"/>
		<rect x="1086.6" y="105.2" class="st6" width="14.1" height="3"/>
		<path class="st6" d="M1100.7,72.2h-14.1v-10c0-3.9,3.2-7,7-7l0,0c3.9,0,7,3.2,7,7V72.2z"/>
	</g>
</g>
<g>
	<path class="st7" d="M937.5,48.1c-7.4,17.3-5.6,18.7-5.6,18.7s3.3,4.3,5.6,8.2c2.3,4,1.4,6.5,1.4,11.4s-2.8,11.1-1.9,15.9
		c0.9,4.8,3.3,5.7,3.3,9.1s-0.5,15.3-0.5,17.6c0,2.3,3.7-14.5,5.1-17.3s3.3-3.4,1.9-11.1s-2.3-9.4-2.3-13.6s-4.2-10.8-1.4-13.6
		s2.8-3.7,1.4-6.2c-1.4-2.6-4.2-7.9-4.2-10.8s-1.9-12.5-1.9-12.5L937.5,48.1z"/>
	<path class="st7" d="M988.8,48.1c-7.4,17.3-5.6,18.7-5.6,18.7s3.3,4.3,5.6,8.2c2.3,4,1.4,6.5,1.4,11.4s-2.8,11.1-1.9,15.9
		c0.9,4.8,3.3,5.7,3.3,9.1s-0.5,15.3-0.5,17.6c0,2.3,3.7-14.5,5.1-17.3s3.3-3.4,1.9-11.1s-2.3-9.4-2.3-13.6s-4.2-10.8-1.4-13.6
		s2.8-3.7,1.4-6.2c-1.4-2.6-4.2-7.9-4.2-10.8s-1.9-12.5-1.9-12.5L988.8,48.1z"/>
	<path class="st7" d="M966.7,126.4c7.8-17.2,6-18.7,6-18.7s-3.1-4.3-5.4-8.3c-2.2-4-1.2-6.5-1.1-11.4c0.1-4.8,3-11,2.2-15.9
		c-0.8-4.8-3.1-5.7-3-9.1c0.1-3.4,0.8-15.3,0.9-17.6c0.1-2.3-4.1,14.4-5.5,17.3c-1.5,2.8-3.3,3.4-2.1,11.1c1.2,7.7,2.1,9.4,2,13.6
		c-0.1,4.3,3.9,10.8,1.1,13.6c-2.9,2.8-2.9,3.7-1.5,6.2s4,8,3.9,10.8c-0.1,2.8,1.6,12.5,1.6,12.5L966.7,126.4z"/>
</g>
<text transform="matrix(1 0 0 1 108.5441 92.3494)" class="st2 st4 st5">Player One</text>
<g>
	<g>
		<rect x="476.6" y="68.2" class="st2" width="14.1" height="33"/>
		<rect x="476.6" y="101.2" class="st6" width="14.1" height="3"/>
		<path class="st6" d="M490.7,68.2h-14.1v-10c0-3.9,3.2-7,7-7l0,0c3.9,0,7,3.2,7,7V68.2z"/>
	</g>
	<g>
		<rect x="501.6" y="68.2" class="st2" width="14.1" height="33"/>
		<rect x="501.6" y="101.2" class="st6" width="14.1" height="3"/>
		<path class="st6" d="M515.7,68.2h-14.1v-10c0-3.9,3.2-7,7-7l0,0c3.9,0,7,3.2,7,7V68.2z"/>
	</g>
	<g>
		<rect x="526.6" y="68.2" class="st2" width="14.1" height="33"/>
		<rect x="526.6" y="101.2" class="st6" width="14.1" height="3"/>
		<path class="st6" d="M540.7,68.2h-14.1v-10c0-3.9,3.2-7,7-7h0c3.9,0,7,3.2,7,7V68.2z"/>
	</g>
</g>
<g>
	<path class="st7" d="M377.5,44.1c-7.4,17.3-5.6,18.7-5.6,18.7s3.3,4.3,5.6,8.2c2.3,4,1.4,6.5,1.4,11.4s-2.8,11.1-1.9,15.9
		c0.9,4.8,3.3,5.7,3.3,9.1s-0.5,15.3-0.5,17.6c0,2.3,3.7-14.5,5.1-17.3s3.3-3.4,1.9-11.1s-2.3-9.4-2.3-13.6s-4.2-10.8-1.4-13.6
		c2.8-2.8,2.8-3.7,1.4-6.2c-1.4-2.6-4.2-7.9-4.2-10.8s-1.9-12.5-1.9-12.5L377.5,44.1z"/>
	<path class="st7" d="M428.8,44.1c-7.4,17.3-5.6,18.7-5.6,18.7s3.3,4.3,5.6,8.2c2.3,4,1.4,6.5,1.4,11.4s-2.8,11.1-1.9,15.9
		c0.9,4.8,3.3,5.7,3.3,9.1s-0.5,15.3-0.5,17.6c0,2.3,3.7-14.5,5.1-17.3s3.3-3.4,1.9-11.1s-2.3-9.4-2.3-13.6s-4.2-10.8-1.4-13.6
		c2.8-2.8,2.8-3.7,1.4-6.2c-1.4-2.6-4.2-7.9-4.2-10.8s-1.9-12.5-1.9-12.5L428.8,44.1z"/>
	<path class="st7" d="M406.7,122.4c7.8-17.2,6-18.7,6-18.7s-3.1-4.3-5.4-8.3c-2.2-4-1.2-6.5-1.1-11.4c0.1-4.8,3-11,2.2-15.9
		s-3.1-5.7-3-9.1c0.1-3.4,0.8-15.3,0.9-17.6c0.1-2.3-4.1,14.4-5.5,17.3c-1.5,2.8-3.3,3.4-2.1,11.1c1.2,7.7,2.1,9.4,2,13.6
		c-0.1,4.3,3.9,10.8,1.1,13.6c-2.9,2.8-2.9,3.7-1.5,6.2s4,8,3.9,10.8c-0.1,2.8,1.6,12.5,1.6,12.5L406.7,122.4z"/>
</g>
</svg>
